<?xml version="1.0" standalone="no"?>
<!DOCTYPE svg PUBLIC "-//W3C//DTD SVG 20010904//EN"
 "http://www.w3.org/TR/2001/REC-SVG-20010904/DTD/svg10.dtd">
<svg version="1.0" xmlns="http://www.w3.org/2000/svg"
 width="300.000000pt" height="167.000000pt" viewBox="0 0 300.000000 167.000000"
 preserveAspectRatio="xMidYMid meet">
<metadata>
Created by potrace 1.10, written by Peter Selinger 2001-2011
</metadata>
<g transform="translate(0.000000,167.000000) scale(0.100000,-0.100000)"
fill="#000000" stroke="none">
<path d="M1641 1393 c-6 -21 -15 -76 -20 -122 -11 -88 -19 -100 -61 -101 -14
-1 -65 -3 -114 -6 -130 -8 -131 -7 -134 70 -6 116 -21 131 -19 18 1 -56 5
-102 10 -102 4 0 81 0 172 0 l165 0 0 73 c0 41 3 77 6 80 8 7 15 127 9 127 -2
0 -9 -17 -14 -37z"/>
<path d="M1670 1407 c0 -14 5 -29 10 -32 6 -3 10 -52 10 -112 l0 -107 28 27
c27 26 28 26 40 7 9 -15 23 -20 56 -20 25 0 48 -4 51 -10 3 -5 25 -10 48 -9
l42 0 -55 19 c-30 11 -67 20 -81 20 -14 0 -34 7 -45 15 -10 8 -27 15 -36 15
-13 0 -18 8 -19 28 -1 62 -7 99 -21 134 -19 49 -28 57 -28 25z"/>
<path d="M1260 1338 c-4 -86 -11 -110 -41 -136 -17 -15 -45 -32 -63 -39 -30
-11 -29 -12 27 -12 53 -1 58 1 52 18 -4 14 0 21 15 26 18 6 20 15 20 81 0 41
-2 74 -5 74 -3 0 -5 -6 -5 -12z"/>
<path d="M1166 1093 c27 -21 56 -44 63 -51 19 -18 29 -92 30 -212 1 -92 0 -97
-29 -131 -27 -33 -34 -36 -85 -38 -34 0 -66 -8 -82 -18 -29 -19 -16 -30 16
-14 11 6 46 11 78 11 53 0 62 3 89 31 l29 30 -3 167 c-4 186 -5 187 -84 238
-60 38 -76 28 -22 -13z"/>
<path d="M1310 1122 c0 -7 109 -115 157 -156 22 -18 22 -18 104 61 49 48 79
85 75 92 -8 13 -336 16 -336 3z m274 -22 c11 -11 -79 -110 -98 -110 -16 0
-116 103 -116 119 0 12 17 13 102 7 56 -3 107 -11 112 -16z"/>
<path d="M1817 1123 c-63 -4 -70 -6 -102 -41 l-34 -37 1 -142 2 -142 70 -68
70 -68 -61 72 -61 72 2 130 c3 172 10 182 121 194 22 3 58 12 80 20 38 15 38
16 10 15 -16 -1 -61 -3 -98 -5z"/>
<path d="M1302 1001 c-15 -9 -12 -273 3 -268 6 2 18 19 27 38 10 19 32 47 50
64 50 44 45 76 -18 130 -30 26 -55 40 -62 36z m65 -73 c24 -31 21 -56 -11 -87
-18 -17 -35 -28 -39 -25 -9 9 -9 128 -1 137 8 8 37 -7 51 -25z"/>
<path d="M1597 953 c-26 -32 -47 -60 -47 -63 0 -3 23 -28 50 -55 l50 -49 0
112 c0 62 -1 112 -3 112 -2 0 -25 -26 -50 -57z m33 -59 c0 -28 -3 -35 -17 -32
-22 4 -29 34 -13 53 20 24 30 17 30 -21z"/>
<path d="M1388 726 c-43 -45 -78 -85 -78 -89 0 -4 46 -6 103 -6 96 1 100 15 5
18 -20 0 -40 6 -43 12 -8 13 96 119 117 119 8 0 40 -25 72 -56 41 -40 56 -62
53 -75 -3 -12 0 -19 9 -19 8 0 14 9 14 21 0 29 -127 159 -154 158 -12 -1 -54
-36 -98 -83z"/>
<path d="M1045 592 c4 -4 25 -13 47 -22 27 -10 42 -22 44 -35 3 -18 29 -45 45
-45 4 0 21 12 38 26 17 14 35 23 40 20 10 -7 25 43 16 53 -4 3 -27 -16 -51
-43 -43 -47 -45 -48 -64 -31 -20 18 -20 18 2 42 12 12 20 25 17 27 -7 6 -140
14 -134 8z"/>
<path d="M1293 585 c-7 -21 3 -31 19 -17 7 6 44 13 82 16 98 9 95 16 -8 16
-69 0 -88 -3 -93 -15z"/>
<path d="M1691 553 c2 -45 2 -46 8 -13 4 21 12 34 20 32 7 -1 11 3 9 10 -3 7
-12 14 -21 16 -14 3 -17 -5 -16 -45z"/>
</g>
</svg>
